# xmcd
#
# Track frame offsets: 
#        150
#        19882
#        52362
#        70171
#        90857
#        114413
#        131331
#        148674
#        166957
#        197848
#        227479
#
# Disc length: 3263 seconds
#
# Revision: 0
# Processed by: cddbd v1.5.2PL0 Copyright (c) Steve Scherf et al.
# Submitted via: ExactAudioCopy v1.3
#
DISCID=920cbd0b
DTITLE=Ana Popovic and Hush - Hometown
DYEAR=1998
DGENRE=Blues Rock
TTITLE0=Game Of Love
TTITLE1=My Hometown
TTITLE2=Girl Of Many Words
TTITLE3=New York City
TTITLE4=Neighbor, Neighbor
TTITLE5=Learn To Treat Me Right
TTITLE6=Grab Your Life
TTITLE7=I'm About To Leave You
TTITLE8=Breaking Up Somebody's Home
TTITLE9=That's Why I Cry
TTITLE10=Statesboro Blues
EXTD=
EXTT0=
EXTT1=
EXTT2=
EXTT3=
EXTT4=
EXTT5=
EXTT6=
EXTT7=
EXTT8=
EXTT9=
EXTT10=
PLAYORDER=
